<mxfile host="app.diagrams.net" agent="Mozilla/5.0 (Windows NT 10.0; Win64; x64) AppleWebKit/537.36 (KHTML, like Gecko) Chrome/137.0.0.0 Safari/537.36" version="27.2.0">
  <diagram name="페이지-1" id="1YTHuSm2HGPzSGRn2rOb">
    <mxGraphModel dx="2505" dy="914" grid="1" gridSize="10" guides="1" tooltips="1" connect="1" arrows="1" fold="1" page="1" pageScale="1" pageWidth="827" pageHeight="1169" math="0" shadow="0">
      <root>
        <mxCell id="0" />
        <mxCell id="1" parent="0" />
        <mxCell id="fI4RuD9UBc3LA53aWhnX-50" value="엘리베이터 사용&lt;div&gt;&lt;br&gt;&lt;/div&gt;&lt;div&gt;객체 : 사용자 (User), 조작 시스템 (Controller), 엘리베이터 (elevator)&lt;/div&gt;&lt;div&gt;&lt;br&gt;&lt;/div&gt;&lt;div&gt;1. 사용자가 엘리베이터 버튼을 누른다. (Button)&lt;/div&gt;&lt;div&gt;2. 엘리베이터가 위로 올라가거나 아래로 내려간다. (Move Up or Down)&lt;/div&gt;&lt;div&gt;3. 엘리베이터가 도착하면 엘리베이터 문이 열리고(Open door)&amp;nbsp;&lt;/div&gt;&lt;div&gt;일정시간 (Time Count) 이 지나면 엘리베이터 문이 닫힌다. (Close door)&amp;nbsp;&amp;nbsp;&lt;/div&gt;" style="text;html=1;align=left;verticalAlign=middle;resizable=0;points=[];autosize=1;strokeColor=none;fillColor=none;" vertex="1" parent="1">
          <mxGeometry x="60" y="70" width="390" height="130" as="geometry" />
        </mxCell>
        <mxCell id="fI4RuD9UBc3LA53aWhnX-57" value="" style="group" vertex="1" connectable="0" parent="1">
          <mxGeometry x="-700" y="590" width="545" height="480" as="geometry" />
        </mxCell>
        <mxCell id="fI4RuD9UBc3LA53aWhnX-52" value="" style="rounded=0;whiteSpace=wrap;html=1;" vertex="1" parent="fI4RuD9UBc3LA53aWhnX-57">
          <mxGeometry x="350" y="240" width="190" height="55" as="geometry" />
        </mxCell>
        <mxCell id="fI4RuD9UBc3LA53aWhnX-23" value="사용자" style="rounded=0;whiteSpace=wrap;html=1;" vertex="1" parent="fI4RuD9UBc3LA53aWhnX-57">
          <mxGeometry width="120" height="60" as="geometry" />
        </mxCell>
        <mxCell id="fI4RuD9UBc3LA53aWhnX-24" value="비디오샵 DB" style="rounded=0;whiteSpace=wrap;html=1;" vertex="1" parent="fI4RuD9UBc3LA53aWhnX-57">
          <mxGeometry x="240" width="120" height="60" as="geometry" />
        </mxCell>
        <mxCell id="fI4RuD9UBc3LA53aWhnX-25" value="" style="endArrow=none;html=1;rounded=0;entryX=0.5;entryY=1;entryDx=0;entryDy=0;dashed=1;" edge="1" parent="fI4RuD9UBc3LA53aWhnX-57" target="fI4RuD9UBc3LA53aWhnX-23">
          <mxGeometry width="50" height="50" relative="1" as="geometry">
            <mxPoint x="60" y="460" as="sourcePoint" />
            <mxPoint x="100" y="140" as="targetPoint" />
          </mxGeometry>
        </mxCell>
        <mxCell id="fI4RuD9UBc3LA53aWhnX-26" value="" style="endArrow=none;html=1;rounded=0;entryX=0.5;entryY=1;entryDx=0;entryDy=0;dashed=1;" edge="1" parent="fI4RuD9UBc3LA53aWhnX-57" source="fI4RuD9UBc3LA53aWhnX-33" target="fI4RuD9UBc3LA53aWhnX-24">
          <mxGeometry width="50" height="50" relative="1" as="geometry">
            <mxPoint x="300" y="440.57142857142867" as="sourcePoint" />
            <mxPoint x="100" y="190" as="targetPoint" />
          </mxGeometry>
        </mxCell>
        <mxCell id="fI4RuD9UBc3LA53aWhnX-29" value="1. 시스템에 접속한다." style="text;html=1;align=center;verticalAlign=middle;resizable=0;points=[];autosize=1;strokeColor=none;fillColor=none;fontSize=10;" vertex="1" parent="fI4RuD9UBc3LA53aWhnX-57">
          <mxGeometry x="60" y="80" width="110" height="30" as="geometry" />
        </mxCell>
        <mxCell id="fI4RuD9UBc3LA53aWhnX-30" value="" style="rounded=0;whiteSpace=wrap;html=1;" vertex="1" parent="fI4RuD9UBc3LA53aWhnX-57">
          <mxGeometry x="290" y="110" width="20" height="60" as="geometry" />
        </mxCell>
        <mxCell id="fI4RuD9UBc3LA53aWhnX-27" value="" style="endArrow=classic;html=1;rounded=0;entryX=0;entryY=0;entryDx=0;entryDy=0;" edge="1" parent="fI4RuD9UBc3LA53aWhnX-57" target="fI4RuD9UBc3LA53aWhnX-30">
          <mxGeometry width="50" height="50" relative="1" as="geometry">
            <mxPoint x="60" y="110" as="sourcePoint" />
            <mxPoint x="280" y="110" as="targetPoint" />
          </mxGeometry>
        </mxCell>
        <mxCell id="fI4RuD9UBc3LA53aWhnX-31" value="" style="endArrow=classic;html=1;rounded=0;exitX=0;exitY=0.75;exitDx=0;exitDy=0;" edge="1" parent="fI4RuD9UBc3LA53aWhnX-57" source="fI4RuD9UBc3LA53aWhnX-30">
          <mxGeometry width="50" height="50" relative="1" as="geometry">
            <mxPoint x="50" y="160" as="sourcePoint" />
            <mxPoint x="60" y="155" as="targetPoint" />
          </mxGeometry>
        </mxCell>
        <mxCell id="fI4RuD9UBc3LA53aWhnX-32" value="2. 시스템 화면을 보여준다." style="text;html=1;align=center;verticalAlign=middle;resizable=0;points=[];autosize=1;strokeColor=none;fillColor=none;fontSize=10;" vertex="1" parent="fI4RuD9UBc3LA53aWhnX-57">
          <mxGeometry x="160" y="125" width="130" height="30" as="geometry" />
        </mxCell>
        <mxCell id="fI4RuD9UBc3LA53aWhnX-33" value="" style="rounded=0;whiteSpace=wrap;html=1;" vertex="1" parent="fI4RuD9UBc3LA53aWhnX-57">
          <mxGeometry x="290" y="230" width="20" height="250" as="geometry" />
        </mxCell>
        <mxCell id="fI4RuD9UBc3LA53aWhnX-35" value="" style="endArrow=classic;html=1;rounded=0;entryX=0;entryY=0;entryDx=0;entryDy=0;" edge="1" parent="fI4RuD9UBc3LA53aWhnX-57" target="fI4RuD9UBc3LA53aWhnX-33">
          <mxGeometry width="50" height="50" relative="1" as="geometry">
            <mxPoint x="60" y="230" as="sourcePoint" />
            <mxPoint x="140" y="200" as="targetPoint" />
          </mxGeometry>
        </mxCell>
        <mxCell id="fI4RuD9UBc3LA53aWhnX-37" value="3. 대여 버튼을 누른다." style="text;html=1;align=center;verticalAlign=middle;resizable=0;points=[];autosize=1;strokeColor=none;fillColor=none;fontSize=10;" vertex="1" parent="fI4RuD9UBc3LA53aWhnX-57">
          <mxGeometry x="55" y="200" width="120" height="30" as="geometry" />
        </mxCell>
        <mxCell id="fI4RuD9UBc3LA53aWhnX-38" value="4. 비디오 코드 입력 화면을 보여준다." style="text;html=1;align=center;verticalAlign=middle;resizable=0;points=[];autosize=1;strokeColor=none;fillColor=none;fontSize=10;" vertex="1" parent="fI4RuD9UBc3LA53aWhnX-57">
          <mxGeometry x="120" y="230" width="180" height="30" as="geometry" />
        </mxCell>
        <mxCell id="fI4RuD9UBc3LA53aWhnX-39" value="" style="rounded=0;whiteSpace=wrap;html=1;" vertex="1" parent="fI4RuD9UBc3LA53aWhnX-57">
          <mxGeometry x="50" y="260" width="20" height="60" as="geometry" />
        </mxCell>
        <mxCell id="fI4RuD9UBc3LA53aWhnX-36" value="" style="endArrow=classic;html=1;rounded=0;exitX=0.029;exitY=0.119;exitDx=0;exitDy=0;entryX=1;entryY=0;entryDx=0;entryDy=0;exitPerimeter=0;" edge="1" parent="fI4RuD9UBc3LA53aWhnX-57" source="fI4RuD9UBc3LA53aWhnX-33" target="fI4RuD9UBc3LA53aWhnX-39">
          <mxGeometry width="50" height="50" relative="1" as="geometry">
            <mxPoint x="110" y="300" as="sourcePoint" />
            <mxPoint x="60" y="260" as="targetPoint" />
          </mxGeometry>
        </mxCell>
        <mxCell id="fI4RuD9UBc3LA53aWhnX-42" value="" style="rounded=0;whiteSpace=wrap;html=1;" vertex="1" parent="fI4RuD9UBc3LA53aWhnX-57">
          <mxGeometry x="300" y="320" width="20" height="140" as="geometry" />
        </mxCell>
        <mxCell id="fI4RuD9UBc3LA53aWhnX-45" value="5. 대여할 비디오 코드를 입력한다." style="text;html=1;align=center;verticalAlign=middle;resizable=0;points=[];autosize=1;strokeColor=none;fillColor=none;fontSize=10;" vertex="1" parent="fI4RuD9UBc3LA53aWhnX-57">
          <mxGeometry x="60" y="290" width="170" height="30" as="geometry" />
        </mxCell>
        <mxCell id="fI4RuD9UBc3LA53aWhnX-44" value="" style="endArrow=classic;html=1;rounded=0;exitX=1;exitY=1;exitDx=0;exitDy=0;entryX=0;entryY=0;entryDx=0;entryDy=0;" edge="1" parent="fI4RuD9UBc3LA53aWhnX-57" source="fI4RuD9UBc3LA53aWhnX-39" target="fI4RuD9UBc3LA53aWhnX-42">
          <mxGeometry width="50" height="50" relative="1" as="geometry">
            <mxPoint x="50" y="390" as="sourcePoint" />
            <mxPoint x="260" y="320" as="targetPoint" />
          </mxGeometry>
        </mxCell>
        <mxCell id="fI4RuD9UBc3LA53aWhnX-46" value="" style="rounded=0;whiteSpace=wrap;html=1;" vertex="1" parent="fI4RuD9UBc3LA53aWhnX-57">
          <mxGeometry x="310" y="340" width="20" height="80" as="geometry" />
        </mxCell>
        <mxCell id="fI4RuD9UBc3LA53aWhnX-47" value="" style="endArrow=classic;html=1;rounded=0;exitX=1.1;exitY=0.084;exitDx=0;exitDy=0;exitPerimeter=0;entryX=1;entryY=0.25;entryDx=0;entryDy=0;" edge="1" parent="fI4RuD9UBc3LA53aWhnX-57" source="fI4RuD9UBc3LA53aWhnX-42" target="fI4RuD9UBc3LA53aWhnX-46">
          <mxGeometry width="50" height="50" relative="1" as="geometry">
            <mxPoint x="360" y="330" as="sourcePoint" />
            <mxPoint x="410" y="280" as="targetPoint" />
            <Array as="points">
              <mxPoint x="380" y="332" />
              <mxPoint x="380" y="360" />
            </Array>
          </mxGeometry>
        </mxCell>
        <mxCell id="fI4RuD9UBc3LA53aWhnX-48" value="비디오 코드가 유효하지 않은 경우&lt;div&gt;a. 입력한 코드가 잘못된값임을 보여준다.&lt;/div&gt;&lt;div&gt;b. 사용자는 비디오 코드를 다시 입력한다.&lt;/div&gt;" style="text;html=1;align=center;verticalAlign=middle;resizable=0;points=[];autosize=1;strokeColor=none;fillColor=none;fontSize=10;" vertex="1" parent="fI4RuD9UBc3LA53aWhnX-57">
          <mxGeometry x="345" y="242.5" width="200" height="50" as="geometry" />
        </mxCell>
        <mxCell id="fI4RuD9UBc3LA53aWhnX-49" value="6. 유효성 검사를 한다." style="text;html=1;align=center;verticalAlign=middle;resizable=0;points=[];autosize=1;strokeColor=none;fillColor=none;fontSize=10;" vertex="1" parent="fI4RuD9UBc3LA53aWhnX-57">
          <mxGeometry x="320" y="300" width="120" height="30" as="geometry" />
        </mxCell>
        <mxCell id="fI4RuD9UBc3LA53aWhnX-53" value="" style="rounded=0;whiteSpace=wrap;html=1;" vertex="1" parent="fI4RuD9UBc3LA53aWhnX-57">
          <mxGeometry x="50" y="380" width="20" height="80" as="geometry" />
        </mxCell>
        <mxCell id="fI4RuD9UBc3LA53aWhnX-54" value="" style="endArrow=classic;html=1;rounded=0;entryX=1;entryY=0;entryDx=0;entryDy=0;exitX=0;exitY=0.5;exitDx=0;exitDy=0;" edge="1" parent="fI4RuD9UBc3LA53aWhnX-57" source="fI4RuD9UBc3LA53aWhnX-46" target="fI4RuD9UBc3LA53aWhnX-53">
          <mxGeometry width="50" height="50" relative="1" as="geometry">
            <mxPoint x="220" y="430" as="sourcePoint" />
            <mxPoint x="270" y="380" as="targetPoint" />
          </mxGeometry>
        </mxCell>
        <mxCell id="fI4RuD9UBc3LA53aWhnX-56" value="7. 고객 정보와 비디오 코드를 대여 목록에 등록한다." style="text;html=1;align=center;verticalAlign=middle;resizable=0;points=[];autosize=1;strokeColor=none;fillColor=none;fontSize=10;" vertex="1" parent="fI4RuD9UBc3LA53aWhnX-57">
          <mxGeometry x="55" y="350" width="240" height="30" as="geometry" />
        </mxCell>
        <mxCell id="fI4RuD9UBc3LA53aWhnX-58" value="" style="group" vertex="1" connectable="0" parent="1">
          <mxGeometry x="-720" y="20" width="500" height="465" as="geometry" />
        </mxCell>
        <mxCell id="fI4RuD9UBc3LA53aWhnX-1" value="&lt;div style=&quot;text-align: left;&quot;&gt;&lt;span style=&quot;background-color: transparent; color: light-dark(rgb(0, 0, 0), rgb(255, 255, 255));&quot;&gt;순차 다이어그램&lt;/span&gt;&lt;/div&gt;&lt;div style=&quot;text-align: left;&quot;&gt;&lt;br&gt;&lt;/div&gt;&lt;div style=&quot;text-align: left;&quot;&gt;구성요소 : 객체, 메시지, 회귀 메시지, 제어 블럭, 답신 메시지&lt;/div&gt;&lt;div style=&quot;text-align: left;&quot;&gt;&lt;br&gt;&lt;/div&gt;&lt;div style=&quot;text-align: left;&quot;&gt;객체 : 메시지 송수신 객체&lt;/div&gt;&lt;div style=&quot;text-align: left;&quot;&gt;메시지 : 객체간 연결 기능 담당&lt;/div&gt;&lt;div style=&quot;text-align: left;&quot;&gt;회귀 메시지 : 같은 객체에 대한 함수(메서드)를 호출&lt;/div&gt;&lt;div style=&quot;text-align: left;&quot;&gt;제어 블럭 : 제어문을 위한 루프&lt;/div&gt;&lt;div style=&quot;text-align: left;&quot;&gt;답신 메시지 : 이전 호출의 반환을 기다리는 객체에 다시 반환되는 메시지&lt;/div&gt;" style="text;html=1;align=center;verticalAlign=middle;resizable=0;points=[];autosize=1;strokeColor=none;fillColor=none;" vertex="1" parent="fI4RuD9UBc3LA53aWhnX-58">
          <mxGeometry x="27" width="380" height="140" as="geometry" />
        </mxCell>
        <mxCell id="fI4RuD9UBc3LA53aWhnX-2" value="Object" style="rounded=0;whiteSpace=wrap;html=1;" vertex="1" parent="fI4RuD9UBc3LA53aWhnX-58">
          <mxGeometry x="40" y="160" width="120" height="60" as="geometry" />
        </mxCell>
        <mxCell id="fI4RuD9UBc3LA53aWhnX-3" value="Object" style="rounded=0;whiteSpace=wrap;html=1;" vertex="1" parent="fI4RuD9UBc3LA53aWhnX-58">
          <mxGeometry x="380" y="160" width="120" height="60" as="geometry" />
        </mxCell>
        <mxCell id="fI4RuD9UBc3LA53aWhnX-4" value="Object" style="rounded=0;whiteSpace=wrap;html=1;" vertex="1" parent="fI4RuD9UBc3LA53aWhnX-58">
          <mxGeometry x="210" y="160" width="120" height="60" as="geometry" />
        </mxCell>
        <mxCell id="fI4RuD9UBc3LA53aWhnX-5" value="" style="endArrow=none;html=1;rounded=0;entryX=0.5;entryY=1;entryDx=0;entryDy=0;dashed=1;" edge="1" parent="fI4RuD9UBc3LA53aWhnX-58" source="fI4RuD9UBc3LA53aWhnX-8" target="fI4RuD9UBc3LA53aWhnX-2">
          <mxGeometry width="50" height="50" relative="1" as="geometry">
            <mxPoint x="100" y="350" as="sourcePoint" />
            <mxPoint x="110" y="240" as="targetPoint" />
          </mxGeometry>
        </mxCell>
        <mxCell id="fI4RuD9UBc3LA53aWhnX-6" value="객체의 생명선" style="text;html=1;align=center;verticalAlign=middle;resizable=0;points=[];autosize=1;strokeColor=none;fillColor=none;" vertex="1" parent="fI4RuD9UBc3LA53aWhnX-58">
          <mxGeometry y="230" width="90" height="30" as="geometry" />
        </mxCell>
        <mxCell id="fI4RuD9UBc3LA53aWhnX-7" value="객체의 오퍼레이션이 실행되고 있다." style="text;html=1;align=center;verticalAlign=middle;resizable=0;points=[];autosize=1;strokeColor=none;fillColor=none;" vertex="1" parent="fI4RuD9UBc3LA53aWhnX-58">
          <mxGeometry x="110" y="255" width="200" height="30" as="geometry" />
        </mxCell>
        <mxCell id="fI4RuD9UBc3LA53aWhnX-9" value="" style="endArrow=none;html=1;rounded=0;entryX=0.5;entryY=1;entryDx=0;entryDy=0;dashed=1;" edge="1" parent="fI4RuD9UBc3LA53aWhnX-58" target="fI4RuD9UBc3LA53aWhnX-8">
          <mxGeometry width="50" height="50" relative="1" as="geometry">
            <mxPoint x="100" y="430" as="sourcePoint" />
            <mxPoint x="100" y="220" as="targetPoint" />
          </mxGeometry>
        </mxCell>
        <mxCell id="fI4RuD9UBc3LA53aWhnX-10" value="" style="endArrow=classic;html=1;rounded=0;" edge="1" parent="fI4RuD9UBc3LA53aWhnX-58">
          <mxGeometry width="50" height="50" relative="1" as="geometry">
            <mxPoint x="110" y="350" as="sourcePoint" />
            <mxPoint x="260" y="350" as="targetPoint" />
          </mxGeometry>
        </mxCell>
        <mxCell id="fI4RuD9UBc3LA53aWhnX-11" value="" style="endArrow=none;html=1;rounded=0;entryX=0.5;entryY=1;entryDx=0;entryDy=0;dashed=1;" edge="1" parent="fI4RuD9UBc3LA53aWhnX-58" source="fI4RuD9UBc3LA53aWhnX-13" target="fI4RuD9UBc3LA53aWhnX-4">
          <mxGeometry width="50" height="50" relative="1" as="geometry">
            <mxPoint x="270" y="450" as="sourcePoint" />
            <mxPoint x="90" y="210" as="targetPoint" />
          </mxGeometry>
        </mxCell>
        <mxCell id="fI4RuD9UBc3LA53aWhnX-12" value="" style="rounded=0;whiteSpace=wrap;html=1;" vertex="1" parent="fI4RuD9UBc3LA53aWhnX-58">
          <mxGeometry x="260" y="350" width="20" height="70" as="geometry" />
        </mxCell>
        <mxCell id="fI4RuD9UBc3LA53aWhnX-14" value="" style="endArrow=none;html=1;rounded=0;entryX=0.5;entryY=1;entryDx=0;entryDy=0;dashed=1;" edge="1" parent="fI4RuD9UBc3LA53aWhnX-58" target="fI4RuD9UBc3LA53aWhnX-13">
          <mxGeometry width="50" height="50" relative="1" as="geometry">
            <mxPoint x="270" y="450" as="sourcePoint" />
            <mxPoint x="270" y="220" as="targetPoint" />
          </mxGeometry>
        </mxCell>
        <mxCell id="fI4RuD9UBc3LA53aWhnX-13" value="" style="rounded=0;whiteSpace=wrap;html=1;" vertex="1" parent="fI4RuD9UBc3LA53aWhnX-58">
          <mxGeometry x="260" y="300" width="20" height="20" as="geometry" />
        </mxCell>
        <mxCell id="fI4RuD9UBc3LA53aWhnX-15" value="" style="endArrow=classic;html=1;rounded=0;entryX=0;entryY=0.5;entryDx=0;entryDy=0;exitX=0.5;exitY=0.529;exitDx=0;exitDy=0;exitPerimeter=0;dashed=1;" edge="1" parent="fI4RuD9UBc3LA53aWhnX-58">
          <mxGeometry width="50" height="50" relative="1" as="geometry">
            <mxPoint x="100" y="299.995" as="sourcePoint" />
            <mxPoint x="260" y="300.03" as="targetPoint" />
          </mxGeometry>
        </mxCell>
        <mxCell id="fI4RuD9UBc3LA53aWhnX-8" value="" style="rounded=0;whiteSpace=wrap;html=1;" vertex="1" parent="fI4RuD9UBc3LA53aWhnX-58">
          <mxGeometry x="90" y="265" width="20" height="85" as="geometry" />
        </mxCell>
        <mxCell id="fI4RuD9UBc3LA53aWhnX-16" value="" style="endArrow=classic;html=1;rounded=0;exitX=0;exitY=1;exitDx=0;exitDy=0;entryX=1;entryY=0.647;entryDx=0;entryDy=0;entryPerimeter=0;" edge="1" parent="fI4RuD9UBc3LA53aWhnX-58" source="fI4RuD9UBc3LA53aWhnX-13" target="fI4RuD9UBc3LA53aWhnX-8">
          <mxGeometry width="50" height="50" relative="1" as="geometry">
            <mxPoint x="40" y="260" as="sourcePoint" />
            <mxPoint x="90" y="210" as="targetPoint" />
          </mxGeometry>
        </mxCell>
        <mxCell id="fI4RuD9UBc3LA53aWhnX-17" value="비동기통신" style="text;html=1;align=center;verticalAlign=middle;resizable=0;points=[];autosize=1;strokeColor=none;fillColor=none;fontSize=11;" vertex="1" parent="fI4RuD9UBc3LA53aWhnX-58">
          <mxGeometry x="145" y="278" width="70" height="30" as="geometry" />
        </mxCell>
        <mxCell id="fI4RuD9UBc3LA53aWhnX-18" value="비동기통신" style="text;html=1;align=center;verticalAlign=middle;resizable=0;points=[];autosize=1;strokeColor=none;fillColor=none;fontSize=11;" vertex="1" parent="fI4RuD9UBc3LA53aWhnX-58">
          <mxGeometry x="145" y="320" width="70" height="30" as="geometry" />
        </mxCell>
        <mxCell id="fI4RuD9UBc3LA53aWhnX-19" value="동기통신" style="text;html=1;align=center;verticalAlign=middle;resizable=0;points=[];autosize=1;strokeColor=none;fillColor=none;fontSize=11;" vertex="1" parent="fI4RuD9UBc3LA53aWhnX-58">
          <mxGeometry x="150" y="350" width="60" height="30" as="geometry" />
        </mxCell>
        <mxCell id="fI4RuD9UBc3LA53aWhnX-20" value="1:Message1" style="text;html=1;align=center;verticalAlign=middle;resizable=0;points=[];autosize=1;strokeColor=none;fillColor=none;fontSize=11;" vertex="1" parent="fI4RuD9UBc3LA53aWhnX-58">
          <mxGeometry x="5" y="320" width="80" height="30" as="geometry" />
        </mxCell>
        <mxCell id="fI4RuD9UBc3LA53aWhnX-21" value="" style="rounded=0;whiteSpace=wrap;html=1;" vertex="1" parent="fI4RuD9UBc3LA53aWhnX-58">
          <mxGeometry x="90" y="420" width="20" height="45" as="geometry" />
        </mxCell>
        <mxCell id="fI4RuD9UBc3LA53aWhnX-22" value="" style="endArrow=classic;html=1;rounded=0;exitX=0;exitY=1;exitDx=0;exitDy=0;entryX=0.75;entryY=0;entryDx=0;entryDy=0;" edge="1" parent="fI4RuD9UBc3LA53aWhnX-58" source="fI4RuD9UBc3LA53aWhnX-12" target="fI4RuD9UBc3LA53aWhnX-21">
          <mxGeometry width="50" height="50" relative="1" as="geometry">
            <mxPoint x="40" y="430" as="sourcePoint" />
            <mxPoint x="90" y="380" as="targetPoint" />
          </mxGeometry>
        </mxCell>
        <mxCell id="fI4RuD9UBc3LA53aWhnX-59" value="User" style="rounded=0;whiteSpace=wrap;html=1;" vertex="1" parent="1">
          <mxGeometry x="60" y="222.5" width="120" height="60" as="geometry" />
        </mxCell>
        <mxCell id="fI4RuD9UBc3LA53aWhnX-60" value="Controller" style="rounded=0;whiteSpace=wrap;html=1;" vertex="1" parent="1">
          <mxGeometry x="250" y="222.5" width="120" height="60" as="geometry" />
        </mxCell>
        <mxCell id="fI4RuD9UBc3LA53aWhnX-61" value="Elevator" style="rounded=0;whiteSpace=wrap;html=1;" vertex="1" parent="1">
          <mxGeometry x="430" y="222.5" width="120" height="60" as="geometry" />
        </mxCell>
        <mxCell id="fI4RuD9UBc3LA53aWhnX-63" value="" style="endArrow=none;dashed=1;html=1;dashPattern=1 3;strokeWidth=2;rounded=0;entryX=0.5;entryY=1;entryDx=0;entryDy=0;" edge="1" parent="1" source="fI4RuD9UBc3LA53aWhnX-73" target="fI4RuD9UBc3LA53aWhnX-59">
          <mxGeometry width="50" height="50" relative="1" as="geometry">
            <mxPoint x="120" y="560" as="sourcePoint" />
            <mxPoint x="340" y="400" as="targetPoint" />
          </mxGeometry>
        </mxCell>
        <mxCell id="fI4RuD9UBc3LA53aWhnX-64" value="" style="endArrow=none;dashed=1;html=1;dashPattern=1 3;strokeWidth=2;rounded=0;entryX=0.5;entryY=1;entryDx=0;entryDy=0;" edge="1" parent="1" source="fI4RuD9UBc3LA53aWhnX-92">
          <mxGeometry width="50" height="50" relative="1" as="geometry">
            <mxPoint x="490" y="720" as="sourcePoint" />
            <mxPoint x="490" y="282.5" as="targetPoint" />
          </mxGeometry>
        </mxCell>
        <mxCell id="fI4RuD9UBc3LA53aWhnX-66" value="" style="endArrow=none;dashed=1;html=1;dashPattern=1 3;strokeWidth=2;rounded=0;entryX=0.5;entryY=1;entryDx=0;entryDy=0;" edge="1" parent="1">
          <mxGeometry width="50" height="50" relative="1" as="geometry">
            <mxPoint x="310" y="720" as="sourcePoint" />
            <mxPoint x="310" y="282.5" as="targetPoint" />
          </mxGeometry>
        </mxCell>
        <mxCell id="fI4RuD9UBc3LA53aWhnX-67" value="1. Button" style="text;html=1;align=center;verticalAlign=middle;resizable=0;points=[];autosize=1;strokeColor=none;fillColor=none;fontSize=11;" vertex="1" parent="1">
          <mxGeometry x="120" y="290" width="70" height="30" as="geometry" />
        </mxCell>
        <mxCell id="fI4RuD9UBc3LA53aWhnX-68" value="2. Move Up or Down" style="text;html=1;align=center;verticalAlign=middle;resizable=0;points=[];autosize=1;strokeColor=none;fillColor=none;fontSize=11;" vertex="1" parent="1">
          <mxGeometry x="320" y="350" width="120" height="30" as="geometry" />
        </mxCell>
        <mxCell id="fI4RuD9UBc3LA53aWhnX-69" value="" style="rounded=0;whiteSpace=wrap;html=1;" vertex="1" parent="1">
          <mxGeometry x="300" y="320" width="20" height="60" as="geometry" />
        </mxCell>
        <mxCell id="fI4RuD9UBc3LA53aWhnX-70" value="" style="endArrow=classic;html=1;rounded=0;exitX=1;exitY=1;exitDx=0;exitDy=0;" edge="1" parent="1" source="fI4RuD9UBc3LA53aWhnX-69">
          <mxGeometry width="50" height="50" relative="1" as="geometry">
            <mxPoint x="330" y="380" as="sourcePoint" />
            <mxPoint x="480" y="380" as="targetPoint" />
          </mxGeometry>
        </mxCell>
        <mxCell id="fI4RuD9UBc3LA53aWhnX-71" value="" style="endArrow=classic;html=1;rounded=0;entryX=0;entryY=0;entryDx=0;entryDy=0;exitX=0.084;exitY=1.018;exitDx=0;exitDy=0;exitPerimeter=0;" edge="1" parent="1" source="fI4RuD9UBc3LA53aWhnX-67" target="fI4RuD9UBc3LA53aWhnX-69">
          <mxGeometry width="50" height="50" relative="1" as="geometry">
            <mxPoint x="130" y="330" as="sourcePoint" />
            <mxPoint x="310" y="330" as="targetPoint" />
          </mxGeometry>
        </mxCell>
        <mxCell id="fI4RuD9UBc3LA53aWhnX-72" value="" style="rounded=0;whiteSpace=wrap;html=1;" vertex="1" parent="1">
          <mxGeometry x="480" y="350" width="20" height="30" as="geometry" />
        </mxCell>
        <mxCell id="fI4RuD9UBc3LA53aWhnX-74" value="" style="endArrow=none;dashed=1;html=1;dashPattern=1 3;strokeWidth=2;rounded=0;entryX=0.5;entryY=1;entryDx=0;entryDy=0;" edge="1" parent="1" target="fI4RuD9UBc3LA53aWhnX-73">
          <mxGeometry width="50" height="50" relative="1" as="geometry">
            <mxPoint x="120" y="720" as="sourcePoint" />
            <mxPoint x="120" y="283" as="targetPoint" />
          </mxGeometry>
        </mxCell>
        <mxCell id="fI4RuD9UBc3LA53aWhnX-73" value="" style="rounded=0;whiteSpace=wrap;html=1;" vertex="1" parent="1">
          <mxGeometry x="110" y="410" width="20" height="30" as="geometry" />
        </mxCell>
        <mxCell id="fI4RuD9UBc3LA53aWhnX-75" value="" style="endArrow=classic;html=1;rounded=0;entryX=1;entryY=0;entryDx=0;entryDy=0;" edge="1" parent="1" target="fI4RuD9UBc3LA53aWhnX-73">
          <mxGeometry width="50" height="50" relative="1" as="geometry">
            <mxPoint x="490" y="410" as="sourcePoint" />
            <mxPoint x="310" y="330" as="targetPoint" />
          </mxGeometry>
        </mxCell>
        <mxCell id="fI4RuD9UBc3LA53aWhnX-76" value="3. Show Destination" style="text;html=1;align=center;verticalAlign=middle;resizable=0;points=[];autosize=1;strokeColor=none;fillColor=none;fontSize=11;" vertex="1" parent="1">
          <mxGeometry x="354" y="380" width="120" height="30" as="geometry" />
        </mxCell>
        <mxCell id="fI4RuD9UBc3LA53aWhnX-77" value="4. Open Door" style="text;html=1;align=center;verticalAlign=middle;resizable=0;points=[];autosize=1;strokeColor=none;fillColor=none;fontSize=11;" vertex="1" parent="1">
          <mxGeometry x="320" y="420" width="90" height="30" as="geometry" />
        </mxCell>
        <mxCell id="fI4RuD9UBc3LA53aWhnX-78" value="" style="endArrow=classic;html=1;rounded=0;exitX=1;exitY=1;exitDx=0;exitDy=0;entryX=0;entryY=0;entryDx=0;entryDy=0;" edge="1" parent="1" target="fI4RuD9UBc3LA53aWhnX-79">
          <mxGeometry width="50" height="50" relative="1" as="geometry">
            <mxPoint x="310" y="460" as="sourcePoint" />
            <mxPoint x="470" y="460" as="targetPoint" />
          </mxGeometry>
        </mxCell>
        <mxCell id="fI4RuD9UBc3LA53aWhnX-79" value="" style="rounded=0;whiteSpace=wrap;html=1;" vertex="1" parent="1">
          <mxGeometry x="480" y="460" width="20" height="70" as="geometry" />
        </mxCell>
        <mxCell id="fI4RuD9UBc3LA53aWhnX-84" value="" style="rounded=0;whiteSpace=wrap;html=1;" vertex="1" parent="1">
          <mxGeometry x="300" y="555" width="20" height="30" as="geometry" />
        </mxCell>
        <mxCell id="fI4RuD9UBc3LA53aWhnX-85" value="" style="endArrow=classic;html=1;rounded=0;entryX=1;entryY=0.5;entryDx=0;entryDy=0;" edge="1" parent="1" target="fI4RuD9UBc3LA53aWhnX-84">
          <mxGeometry width="50" height="50" relative="1" as="geometry">
            <mxPoint x="310" y="540" as="sourcePoint" />
            <mxPoint x="480" y="530" as="targetPoint" />
            <Array as="points">
              <mxPoint x="360" y="540" />
              <mxPoint x="360" y="570" />
            </Array>
          </mxGeometry>
        </mxCell>
        <mxCell id="fI4RuD9UBc3LA53aWhnX-86" value="5. Time Count" style="text;html=1;align=center;verticalAlign=middle;resizable=0;points=[];autosize=1;strokeColor=none;fillColor=none;fontSize=11;" vertex="1" parent="1">
          <mxGeometry x="354" y="540" width="90" height="30" as="geometry" />
        </mxCell>
        <mxCell id="fI4RuD9UBc3LA53aWhnX-91" value="6. Close Door" style="text;html=1;align=center;verticalAlign=middle;resizable=0;points=[];autosize=1;strokeColor=none;fillColor=none;fontSize=11;" vertex="1" parent="1">
          <mxGeometry x="320" y="610" width="90" height="30" as="geometry" />
        </mxCell>
        <mxCell id="fI4RuD9UBc3LA53aWhnX-93" value="" style="endArrow=classic;html=1;rounded=0;exitX=1;exitY=1;exitDx=0;exitDy=0;entryX=0;entryY=0;entryDx=0;entryDy=0;" edge="1" parent="1" target="fI4RuD9UBc3LA53aWhnX-92">
          <mxGeometry width="50" height="50" relative="1" as="geometry">
            <mxPoint x="310" y="640" as="sourcePoint" />
            <mxPoint x="480" y="640" as="targetPoint" />
          </mxGeometry>
        </mxCell>
        <mxCell id="fI4RuD9UBc3LA53aWhnX-94" value="" style="endArrow=none;dashed=1;html=1;dashPattern=1 3;strokeWidth=2;rounded=0;entryX=0.5;entryY=1;entryDx=0;entryDy=0;" edge="1" parent="1" target="fI4RuD9UBc3LA53aWhnX-92">
          <mxGeometry width="50" height="50" relative="1" as="geometry">
            <mxPoint x="490" y="720" as="sourcePoint" />
            <mxPoint x="490" y="282.5" as="targetPoint" />
          </mxGeometry>
        </mxCell>
        <mxCell id="fI4RuD9UBc3LA53aWhnX-92" value="" style="rounded=0;whiteSpace=wrap;html=1;" vertex="1" parent="1">
          <mxGeometry x="480" y="640" width="20" height="30" as="geometry" />
        </mxCell>
      </root>
    </mxGraphModel>
  </diagram>
</mxfile>
